<svg width="1024" height="211" viewBox="0 0 1024 211" fill="none" xmlns="http://www.w3.org/2000/svg">
<path d="M150.923 104.494H169.62C171.547 104.494 173.282 106.099 173.282 107.882V172.966C173.282 174.036 172.896 174.928 171.933 175.642C162.873 182.774 152.272 188.302 140.322 192.224C127.793 196.325 114.686 198.465 101.194 198.465C81.9188 198.465 64.7639 194.364 49.344 185.983C33.9241 177.782 21.7808 166.368 13.107 151.746C4.24053 137.304 0 120.899 0 102.711C0 84.5225 4.43329 68.1177 13.107 53.4959C21.9735 38.8741 34.1168 27.4621 49.5368 19.2595C64.9567 11.0572 82.4971 6.95593 101.772 6.95593C116.999 6.95593 130.877 9.45232 143.213 14.2668C154.585 18.7246 166.728 26.927 175.209 35.4862C176.559 36.7344 176.559 38.8741 175.209 40.1223L163.259 51.8911C161.909 53.3176 159.596 53.3176 158.054 52.0694C143.02 39.0524 123.167 30.6717 102.736 30.6717C88.2795 30.6717 75.1724 33.7031 63.8002 39.944C52.2353 46.0067 43.3688 54.5659 36.8152 65.6213C30.2618 76.4984 26.985 88.9804 26.985 102.711C26.985 116.262 30.2618 128.566 36.8152 139.443C43.3688 150.32 52.4281 159.057 63.8002 165.299C75.3652 171.54 88.2795 174.571 102.543 174.571C118.927 174.571 133.19 170.826 145.526 163.516C146.49 162.98 147.261 161.732 147.261 160.663V107.882C147.261 105.92 148.996 104.494 150.923 104.494Z" fill="black"/>
<path d="M346.95 191.688L269.272 1.06988C268.693 -0.356628 266.573 -0.356628 265.995 1.06988L188.317 191.688C187.353 193.828 189.088 196.323 191.786 196.323H212.411C213.953 196.323 215.302 195.432 215.881 194.184L265.417 69.7209C266.188 67.7593 269.079 67.7593 269.85 69.7209L319.387 194.184C319.966 195.432 321.315 196.323 322.857 196.323H343.481C345.986 196.323 347.721 193.828 346.95 191.688Z" fill="black"/>
<path d="M462.216 172.966H385.114C382.994 172.966 381.452 171.362 381.452 169.579V12.4835C381.452 10.7004 379.91 9.09558 377.79 9.09558H357.938C355.817 9.09558 354.275 10.5221 354.275 12.4835V150.499L372.971 196.325H462.216C464.334 196.325 465.876 194.721 465.876 192.937V176.533C465.876 174.571 464.334 172.966 462.216 172.966Z" fill="black"/>
<path d="M548.951 9.09558H568.805C570.732 9.09558 572.467 10.7004 572.467 12.4835V169.757C572.467 171.54 574.202 173.145 576.129 173.145H653.229C655.157 173.145 656.891 174.749 656.891 176.533V193.116C656.891 194.899 655.157 196.504 653.229 196.504H548.951C547.024 196.504 545.289 194.899 545.289 193.116V12.4835C545.289 10.5221 546.831 9.09558 548.951 9.09558Z" fill="black"/>
<path d="M494.596 9.09558H514.45C516.376 9.09558 518.112 10.7004 518.112 12.4835V192.937C518.112 194.721 516.376 196.325 514.45 196.325H494.596C492.669 196.325 490.934 194.721 490.934 192.937V12.4835C490.934 10.5221 492.669 9.09558 494.596 9.09558Z" fill="black"/>
<path d="M793.552 176.354V192.937C793.552 194.721 791.817 196.325 789.89 196.325H685.997C684.07 196.325 682.335 194.721 682.335 192.937V12.4835C682.335 10.7004 684.07 9.09558 685.997 9.09558H789.89C791.817 9.09558 793.552 10.7004 793.552 12.4835V29.0667C793.552 30.85 791.817 32.4548 789.89 32.4548H713.174C711.246 32.4548 709.512 34.0596 709.512 35.8427V88.0887C709.512 89.8718 711.246 91.4766 713.174 91.4766H771.578C773.506 91.4766 775.24 93.0815 775.24 94.8647V110.913C775.24 112.696 773.506 114.301 771.578 114.301H713.174C711.246 114.301 709.512 115.906 709.512 117.689V169.934C709.512 171.717 711.246 173.323 713.174 173.323H789.89C791.817 172.966 793.552 174.571 793.552 176.354Z" fill="black"/>
<path d="M856.002 185.979C840.005 177.777 827.476 166.186 818.224 151.566C809.165 136.943 804.539 120.717 804.539 102.529C804.539 84.5189 809.165 68.2922 818.224 53.4923C827.283 38.8704 840.005 27.4584 856.002 19.0776C872.001 10.8751 890.119 6.59558 909.973 6.59558C929.826 6.59558 947.751 10.6968 963.75 19.0776C979.748 27.28 992.277 38.8704 1001.34 53.3138C1010.4 67.9356 1014.83 84.1623 1014.83 102.35C1014.83 120.538 1010.4 136.943 1001.34 151.386C992.277 166.008 979.748 177.42 963.75 185.623C947.751 194.004 929.826 198.105 909.973 198.105C890.119 198.462 872.001 194.182 856.002 185.979ZM949.293 165.295C960.858 159.054 970.11 150.495 976.664 139.44C983.41 128.562 986.687 116.259 986.687 102.707C986.687 89.155 983.41 76.8514 976.664 65.9742C969.918 55.0971 960.858 46.3596 949.293 40.1187C937.729 33.8777 924.622 30.8463 910.166 30.8463C895.709 30.8463 882.409 34.056 870.651 40.1187C858.893 46.3596 849.641 54.9188 842.896 65.9742C836.15 76.8514 832.873 89.155 832.873 102.707C832.873 116.259 836.15 128.562 842.896 139.44C849.641 150.317 858.893 159.054 870.651 165.295C882.409 171.537 895.516 174.568 910.166 174.568C924.622 174.568 937.537 171.537 949.293 165.295Z" fill="black"/>
</svg>
